<?xml version="1.0" standalone="no"?>
<!DOCTYPE svg PUBLIC "-//W3C//DTD SVG 20010904//EN"
 "http://www.w3.org/TR/2001/REC-SVG-20010904/DTD/svg10.dtd">
<svg version="1.0" xmlns="http://www.w3.org/2000/svg"
 width="530.000000pt" height="180.000000pt" viewBox="0 0 530.000000 180.000000"
 preserveAspectRatio="xMidYMid meet">
<metadata>
Created by potrace 1.15, written by Peter Selinger 2001-2017
</metadata>
<g transform="translate(0.000000,180.000000) scale(0.100000,-0.100000)"
fill="#000000" stroke="none">
<path d="M573 1605 c-270 -59 -456 -294 -456 -575 0 -110 11 -157 60 -260 33
-68 57 -96 276 -318 133 -133 246 -242 251 -242 20 0 453 444 488 500 151 237
120 541 -75 734 -41 41 -99 86 -134 104 -125 66 -275 86 -410 57z m268 -61
c162 -48 295 -171 354 -329 51 -133 42 -288 -23 -418 -31 -63 -64 -101 -254
-292 l-218 -220 -218 220 c-244 245 -268 280 -299 432 -65 313 188 620 513
622 55 1 112 -5 145 -15z"/>
<path d="M575 1302 c-109 -52 -168 -146 -168 -267 0 -162 114 -284 275 -293
86 -5 152 16 213 70 71 63 99 126 99 223 0 67 -4 88 -26 131 -76 146 -247 205
-393 136z m254 -65 c154 -102 143 -327 -21 -411 -100 -51 -201 -34 -278 46
-114 116 -76 309 75 380 62 29 168 22 224 -15z"/>
<path d="M4340 925 l0 -415 75 0 75 0 0 415 0 415 -75 0 -75 0 0 -415z"/>
<path d="M2010 913 l0 -403 225 0 225 0 0 70 0 70 -145 0 -145 0 -2 331 -3
331 -78 1 -77 2 0 -402z"/>
<path d="M2680 1097 c-55 -18 -113 -83 -134 -151 -15 -46 -18 -80 -14 -165 4
-94 8 -113 34 -161 46 -87 112 -120 235 -120 156 0 234 69 260 230 14 81 1
196 -27 256 -23 49 -70 91 -122 109 -52 17 -179 19 -232 2z m187 -133 c33 -21
46 -75 41 -178 -5 -106 -21 -140 -75 -155 -46 -13 -99 5 -127 42 -18 25 -21
43 -21 132 0 89 3 107 21 132 36 49 106 61 161 27z"/>
<path d="M3279 1082 c-41 -21 -59 -38 -76 -72 -50 -98 -51 -306 -2 -408 34
-69 84 -95 195 -100 49 -2 116 1 147 8 62 13 63 15 50 93 l-6 39 -81 -7 c-147
-12 -186 23 -186 172 0 143 42 181 191 169 l76 -6 7 37 c13 79 12 80 -57 92
-115 20 -198 15 -258 -17z"/>
<path d="M3787 1095 c-32 -7 -60 -15 -64 -18 -3 -3 -2 -27 2 -53 l7 -47 114 6
c152 8 183 -7 172 -84 -3 -23 -8 -24 -102 -32 -175 -13 -226 -54 -226 -180 0
-128 45 -179 165 -185 51 -3 86 1 128 16 57 19 59 19 97 1 22 -11 60 -19 85
-19 l45 0 0 51 c0 36 -6 58 -20 76 -18 23 -20 41 -20 192 0 201 -11 235 -82
270 -37 17 -61 21 -144 20 -54 -1 -125 -7 -157 -14z m233 -389 c0 -36 -4 -67
-9 -70 -5 -4 -37 -9 -70 -13 -76 -7 -101 9 -101 67 0 55 37 77 133 79 l47 1 0
-64z"/>
<path d="M4724 1085 c-67 -33 -96 -84 -96 -166 0 -107 41 -147 177 -174 117
-23 135 -32 135 -66 0 -43 -49 -54 -187 -41 -59 5 -109 9 -110 8 -1 0 -3 -28
-4 -61 l-3 -60 75 -13 c107 -19 255 -12 299 14 59 34 80 76 80 158 0 39 -6 82
-13 96 -19 39 -70 67 -154 85 -134 28 -143 33 -143 66 0 51 50 57 253 33 l48
-6 -3 63 -3 64 -65 11 c-36 7 -103 12 -151 13 -72 1 -93 -3 -135 -24z"/>
</g>
</svg>
